<svg width="1438" height="655" viewBox="0 0 1438 655" fill="none" xmlns="http://www.w3.org/2000/svg">
<path d="M1250.21 1.48868L1245.38 3.44076V127.537L1241.78 128.002C1204.88 132.929 1192.39 134.788 1176.75 137.484C1135.47 144.734 1098 153.286 1053 165.742C1036.58 170.204 1022.29 174.202 1021.28 174.573C1019.37 175.224 1019.25 172.342 1019.03 125.678C1018.69 77.9917 1018.58 76.0396 1016.55 75.7608C1015.43 75.5749 1012.5 76.1326 1010.14 77.0622L1005.75 78.6424V179.5L998.779 181.545C985.955 185.449 944.33 199.95 921.718 208.316C875.931 225.42 827.894 245.406 779.069 267.809C763.094 275.152 758.594 276.825 757.919 275.803C757.469 275.059 756.457 267.901 755.782 259.814C755.107 251.82 754.094 244.941 753.419 244.662C752.857 244.291 750.719 244.569 748.807 245.22L745.319 246.429L744.982 265.02L744.757 283.611L697.17 305.921C636.421 334.365 602.558 349.796 600.983 349.796C600.196 349.796 599.633 349.052 599.633 348.123C599.633 347.286 598.058 331.67 596.146 313.543C592.321 278.034 592.096 277.476 586.134 278.684C577.584 280.358 474.085 305.456 473.297 306.014C472.622 306.571 479.372 373.593 482.072 393.207L482.747 397.947L459.91 405.384C434.485 413.657 404.785 422.116 380.486 427.879L364.398 431.691L359.448 428.809C346.961 421.744 329.299 416.818 315.461 416.725H310.961L304.886 377.497L316.924 367.086C342.236 345.241 355.061 325.627 360.686 299.971C363.498 287.329 363.498 258.141 360.798 245.685C357.648 231.556 354.723 223.561 348.761 213.615C341.111 200.508 330.199 190.841 323.111 190.841C313.549 190.841 292.962 214.359 285.312 234.065C279.124 250.054 278.449 255.166 278.562 283.797C278.674 306.385 279.124 312.706 281.487 326.464L284.187 342.545L271.812 351.934C264.949 357.047 251.675 367.086 242.337 374.058C203.075 403.804 188.338 421.93 183.388 447.121L182.038 453.907H137.488L138.051 449.91C138.613 446.285 138.276 445.634 135.013 443.403C129.951 439.871 126.463 439.313 122.863 441.544C120.276 443.124 119.826 444.147 119.826 448.237C119.826 452.42 119.601 452.978 117.463 452.978C115.326 452.978 114.988 452.327 114.426 446.564C113.301 435.037 106.551 426.857 93.8386 421.744C84.7262 418.026 72.1264 417.561 62.6764 420.443C50.1891 424.347 41.6392 431.598 39.1642 440.707L37.7017 445.727L31.5143 445.076C28.1393 444.704 20.2644 443.589 14.0769 442.659C0.0145817 440.428 0.0145816 440.428 0.0145816 443.031C0.0145816 444.983 1.02707 445.262 17.2269 447.679C26.5643 449.073 35.2267 450.189 36.2392 450.189C38.1517 450.189 40.0642 451.769 39.1642 452.606C38.7142 452.978 6.87701 448.051 2.03956 446.842C0.464577 446.471 0.0145816 446.935 0.0145816 448.609C0.0145816 451.211 -1.5604 450.84 28.0268 455.859C42.0892 458.183 48.2766 459.856 46.9266 460.972C46.7016 461.158 36.4642 459.392 24.0893 457.161C11.827 454.837 1.36457 452.978 0.914572 452.978C0.352078 452.978 0.0145816 453.907 0.0145816 455.023C0.0145816 456.975 1.25207 457.439 15.5394 460.228C33.3142 463.668 63.2389 468.78 78.9888 471.104C86.7512 472.219 90.0137 473.149 90.0137 473.986C90.0137 474.729 89.0012 475.287 87.7637 475.287C84.0512 475.287 44.0016 468.129 21.0519 463.296L0.0145816 458.927V460.972C0.0145816 462.738 1.02707 463.389 5.97702 464.597C15.5394 467.014 60.314 475.938 74.0388 478.262C83.8262 479.935 86.6387 480.678 86.4137 481.794C86.1887 482.724 85.0637 483.095 83.2637 482.909C74.8263 481.98 10.3645 468.129 2.03956 465.527C0.464577 464.969 0.0145816 465.341 0.0145816 467.2C0.0145816 469.245 0.914573 469.71 9.35199 471.941C22.0644 475.194 61.5515 484.025 73.0263 486.163C77.9763 487.092 82.1387 488.208 82.1387 488.58C82.1387 489.881 76.0638 496.667 66.5014 505.963C57.2765 514.979 55.7015 518.233 60.539 518.791C62.339 518.977 67.2889 515.537 80.1138 505.033L97.3261 490.997L123.201 495.273C137.488 497.597 157.738 500.478 168.2 501.78C178.775 503.081 188.9 504.382 190.7 504.661C193.4 505.033 195.088 506.334 199.138 511.726C210.387 526.413 229.737 539.892 248.3 545.748C262.812 550.396 274.624 551.79 294.199 551.232C303.536 550.953 312.311 550.396 313.886 550.117L316.699 549.559L320.636 575.122C324.124 598.547 324.349 601.243 323.111 608.215C320.636 622.251 312.199 632.569 298.812 637.961C283.512 644.096 263.937 643.352 256.174 636.287C254.262 634.521 254.262 634.521 259.437 633.87C285.424 630.989 296.787 606.634 279.574 590.739C268.549 580.607 253.475 578.097 238.962 584.046C227.6 588.601 221.975 596.13 220.85 607.75C219.612 620.206 224.675 631.175 235.7 640.284C259.099 659.619 298.137 659.526 321.649 640.099C330.424 632.755 334.699 626.155 337.061 615.93C339.424 605.519 338.974 594.364 334.924 569.173L331.211 546.399L339.874 543.052C358.661 535.709 375.086 523.624 382.398 511.726L384.536 508.194L409.285 506.149C480.722 500.106 540.234 490.067 632.821 468.222C653.295 463.389 670.958 459.206 672.195 458.834C674.333 458.369 674.333 458.369 672.645 460.042C665.67 466.642 662.07 479.656 664.77 487.929C667.358 495.737 678.495 503.174 689.858 504.568C704.482 506.427 724.507 500.106 738.232 489.416C752.519 478.262 754.769 473.335 754.994 452.885L755.107 439.127L758.707 438.197C767.032 435.967 797.856 429.645 798.306 430.017C798.644 430.203 798.306 431.505 797.631 432.899C795.719 437.175 796.169 440.893 798.644 440.893C801.344 440.893 804.044 438.105 807.644 431.876L810.231 427.136L826.769 424.161C908.443 409.474 992.592 405.663 1072.69 413.099C1193.29 424.254 1312.65 460.786 1423.13 520.278C1430.89 524.461 1437.86 528.179 1438.65 528.644C1439.66 529.202 1440 526.227 1440 515.072V500.757L1420.09 490.904C1358.21 460.228 1301.74 438.755 1239.19 422.023C1165.39 402.223 1092.27 392.556 1014.98 392.184L985.392 392.091L989.667 389.395C996.754 384.841 1008.79 374.244 1012.05 369.782C1013.63 367.458 1015.88 363.089 1017 360.207L1019.03 354.909L1033.99 354.165C1051.88 353.235 1103.52 353.979 1125 355.373C1226.25 362.066 1320.41 383.818 1415.25 422.581C1427.96 427.786 1438.65 432.155 1439.21 432.341C1439.66 432.527 1440 426.392 1440 418.77V404.919L1425.15 399.063C1362.94 374.522 1287.79 354.072 1228.73 345.52C1222.43 344.683 1217.25 343.661 1217.25 343.382C1217.25 343.103 1219.61 341.802 1222.65 340.5C1225.58 339.199 1232.78 334.179 1238.74 329.346C1250.55 319.585 1255.5 312.985 1257.75 303.876L1259.1 298.484L1265.96 299.042C1302.75 302.481 1377.9 318.749 1425.26 333.622C1432.46 335.853 1438.65 337.712 1439.21 337.712C1439.66 337.712 1439.89 331.577 1439.78 324.14L1439.44 310.568L1430.44 307.78C1410.64 301.738 1367.55 291.512 1339.76 286.214L1336.73 285.656L1341.34 278.499C1350.23 264.369 1354.95 252.657 1359.68 232.95C1360.01 231.277 1360.69 230.905 1363.28 231.277C1379.59 233.694 1409.96 238.899 1422.9 241.502C1431.79 243.268 1439.21 244.755 1439.55 244.755C1439.77 244.755 1439.89 238.62 1439.78 231.091L1439.44 217.426L1430.44 215.846C1416.71 213.336 1386.9 208.781 1372.95 207.015L1360.58 205.528L1359.11 199.857C1358.33 196.697 1356.98 192.979 1356.08 191.491C1354.5 189.075 1354.61 188.052 1356.86 180.337C1358.78 173.83 1359.34 168.81 1359.45 159.329L1359.56 146.965L1373.06 147.523C1386 148.174 1423.35 151.055 1434.71 152.357L1440 153.007V139.343C1440 131.906 1439.89 125.771 1439.78 125.771C1439.55 125.771 1431.9 125.121 1422.56 124.377C1413.34 123.633 1393.43 122.704 1378.35 122.332L1351.01 121.774L1345.84 113.315C1336.16 97.4196 1328.63 89.6113 1298.81 64.4201C1262.48 33.6516 1258.99 29.0037 1258.88 10.7843C1258.88 -0.556362 1257.86 -1.57888 1250.21 1.48868ZM1281.49 85.4282C1294.65 92.1211 1303.31 97.5126 1312.65 104.856C1320.3 110.712 1330.54 120.845 1329.64 121.495C1329.41 121.681 1319.18 122.332 1306.91 122.983C1285.76 124.005 1284.53 124.005 1282.95 122.332C1267.65 106.343 1258.88 90.7267 1258.88 79.479V74.5523L1265.4 77.5269C1268.89 79.2002 1276.2 82.7325 1281.49 85.4282ZM1343.03 147.43C1344.6 148.917 1346.51 165.65 1345.84 171.041L1345.28 174.945L1339.88 169.647C1336.95 166.765 1329.86 160.63 1324.24 155.982C1315.8 149.196 1314.34 147.523 1315.91 146.965C1319.74 145.757 1341.79 146.129 1343.03 147.43ZM1282.16 160.258C1305.23 172.528 1315.91 179.221 1323.9 186.751C1329.86 192.235 1337.18 201.717 1336.16 202.646C1335.71 202.925 1327.73 202.739 1318.28 202.181C1308.83 201.531 1291.61 200.787 1280.03 200.508L1258.88 199.857V174.48C1258.88 158.492 1259.33 149.01 1260 149.01C1260.56 149.01 1270.58 154.03 1282.16 160.258ZM1245.38 175.503V199.95L1237.28 200.508C1232.78 200.787 1219.5 201.438 1207.69 201.995C1157.18 204.505 1097.67 212.314 1042.09 223.84C1030.95 226.164 1021.28 228.023 1020.49 228.023C1019.59 228.023 1019.25 223.375 1019.48 210.547L1019.82 193.165L1038.94 187.866C1084.95 175.131 1141.77 163.419 1191.38 156.354C1209.49 153.844 1243.46 150.126 1244.59 150.591C1245.04 150.777 1245.38 162.024 1245.38 175.503ZM1005.75 214.452V231.649L992.592 234.995C929.03 251.169 867.268 271.062 800.781 296.904L779.182 305.27L776.594 302.667C769.619 295.974 763.882 289.003 764.669 288.352C765.907 287.422 790.656 276.546 817.881 264.927C856.356 248.567 906.53 229.418 945.568 216.125C964.692 209.711 1003.5 197.441 1004.97 197.348C1005.42 197.348 1005.75 205.063 1005.75 214.452ZM1245.38 246.707C1245.38 268.552 1245.26 270.039 1243.46 269.389C1230.3 265.02 1229.18 264.834 1213.31 264.834C1199.14 264.834 1196.66 265.113 1188 267.437C1179.9 269.668 1175.52 270.132 1159.88 270.876C1092.49 273.758 1074.27 275.245 1020.94 282.217C1020.27 282.31 1019.7 275.803 1019.48 264.555L1019.25 246.707L1023.75 245.685C1059.42 237.784 1123.43 228.86 1167.19 225.699C1194.08 223.84 1196.21 223.747 1222.65 223.561L1245.38 223.375V246.707ZM1288.13 224.305C1305.23 225.327 1334.36 227.651 1340.89 228.674L1344.71 229.232L1344.04 237.691C1343.14 247.823 1340.33 258.048 1334.14 273.107L1329.64 284.355L1310.06 281.38C1299.26 279.8 1283.29 277.662 1274.63 276.732L1258.88 275.059V223.375H1265.4C1268.89 223.375 1279.13 223.84 1288.13 224.305ZM335.036 232.671C339.874 235.088 342.911 240.851 345.161 251.634C350.111 275.989 335.824 303.039 304.436 328.323C298.474 333.157 298.249 333.25 297.687 331.112C295.887 323.954 294.537 310.29 294.649 297.276C294.649 275.617 297.349 262.324 304.436 249.589C309.836 239.736 315.686 234.53 323.899 232.113C329.411 230.44 330.761 230.533 335.036 232.671ZM1005.75 266.972V284.541L997.092 286.121C939.38 296.346 885.156 309.546 832.056 326.092C809.669 333.064 809.669 333.064 807.981 331.019C807.081 329.996 802.806 325.813 798.531 321.909L790.882 314.659L812.594 306.757C859.393 289.653 898.43 277.104 940.168 265.671C959.855 260.279 1002.49 249.589 1004.97 249.496C1005.42 249.403 1005.75 257.304 1005.75 266.972ZM1139.63 295.138C1130.07 307.036 1127.7 319.399 1132.43 333.529C1132.99 335.388 1132.43 335.388 1091.59 335.388C1068.87 335.388 1043.22 335.76 1034.78 336.131L1019.25 336.875V318.842C1019.25 300.808 1019.25 300.715 1021.84 300.25C1026.9 299.135 1059.64 295.974 1079.44 294.487C1104.87 292.721 1108.69 292.535 1127.03 292.349L1142.1 292.163L1139.63 295.138ZM744.532 308.616L744.195 319.585L673.995 348.681C635.408 364.669 603.683 377.683 603.458 377.404C603.233 377.218 602.783 373.593 602.333 369.224L601.658 361.416L623.371 351.934C635.408 346.728 667.245 332.413 694.133 320.143C721.02 307.873 743.519 297.833 743.969 297.74C744.419 297.74 744.644 302.667 744.532 308.616ZM586.696 301.645C586.921 302.853 588.271 313.822 589.509 326.092C590.746 338.362 592.096 349.517 592.434 350.911C592.996 353.049 592.434 353.793 589.284 355.373C583.546 358.348 519.759 384.376 504.347 390.046L490.51 395.159L490.06 392.184C488.935 386.514 482.297 323.768 482.747 323.489C482.972 323.303 492.535 320.98 504.009 318.284C515.484 315.681 537.759 310.383 553.509 306.571C569.259 302.76 583.096 299.693 584.109 299.6C585.234 299.6 586.359 300.529 586.696 301.645ZM1005.75 314.008V325.627L1001.25 323.768C986.742 317.633 966.492 317.54 948.605 323.396C932.968 328.602 913.955 340.222 907.88 348.309C905.855 351.19 904.73 351.562 894.605 353.514C880.656 356.117 861.981 360.114 842.406 364.762C833.969 366.714 826.881 368.387 826.544 368.387C826.319 368.387 825.756 366.342 825.306 363.739C824.856 361.23 823.281 355.931 821.706 352.027C819.456 346.635 819.119 344.776 820.131 344.219C822.831 342.824 882.793 326.557 900.568 322.374C932.068 314.937 994.842 302.853 1003.84 302.481C1005.53 302.388 1005.75 303.504 1005.75 314.008ZM772.994 326.092C780.082 328.974 787.282 333.157 790.769 336.224C793.357 338.455 793.357 338.641 791.332 339.199C790.207 339.571 781.657 342.545 772.544 345.706C760.957 349.703 755.669 351.19 755.332 350.354C754.994 349.703 754.994 344.683 755.107 339.013L755.444 328.881L761.069 326.371C764.219 324.977 766.919 323.768 767.144 323.768C767.257 323.768 769.957 324.791 772.994 326.092ZM744.532 344.312L744.195 355.559L704.82 369.968C683.22 377.869 652.17 389.024 635.971 394.88L606.496 405.384L605.933 400.55C605.483 397.947 605.146 394.229 604.921 392.277L604.696 388.838L627.758 379.728C640.471 374.801 671.633 362.252 696.945 351.934C722.37 341.709 743.519 333.157 743.969 333.157C744.419 333.064 744.644 338.176 744.532 344.312ZM807.194 354.537C810.006 359.649 814.056 370.897 813.269 371.548C812.594 372.198 757.244 387.908 756.007 387.908C755.219 387.908 754.882 383.818 755.107 376.567L755.444 365.134L778.507 357.511C791.219 353.328 802.244 349.796 803.031 349.796C803.819 349.796 805.731 351.934 807.194 354.537ZM594.458 370.432C596.034 381.866 598.621 379.821 567.909 391.347C536.972 402.967 494.335 417.375 493.322 416.539C492.872 416.26 492.535 413.378 492.422 410.218L492.197 404.454L511.884 397.39C522.684 393.485 544.959 384.748 561.384 378.055C577.809 371.269 591.759 365.692 592.434 365.692C593.109 365.599 594.008 367.83 594.458 370.432ZM897.643 374.429C897.643 381.959 900.68 387.815 907.093 393.207C909.568 395.438 911.255 397.204 910.693 397.204C903.83 397.204 852.081 404.919 831.494 408.916C825.081 410.125 819.569 411.054 819.344 410.868C819.119 410.682 820.244 406.685 821.706 401.944C823.281 397.297 824.856 391.162 825.194 388.373L825.981 383.26L831.831 381.866C838.131 380.286 892.356 369.131 896.855 368.48C897.193 368.48 897.53 371.083 897.643 374.429ZM744.532 380.565L744.195 391.812L685.133 410.125C606.946 434.386 606.046 434.572 606.833 432.899C607.171 432.062 607.508 427.879 607.508 423.603C607.508 419.327 607.958 415.795 608.521 415.795C609.758 415.795 660.158 398.505 709.882 381.029C728.107 374.615 743.519 369.317 743.969 369.317C744.419 369.317 744.644 374.336 744.532 380.565ZM812.256 396.739C811.581 399.807 810.006 404.919 808.769 408.173C806.856 412.913 805.956 414.029 803.481 414.494C801.794 414.865 790.656 417.375 778.732 420.071C766.694 422.86 756.457 425.091 755.894 425.091C754.207 425.091 754.657 403.153 756.344 402.037C757.019 401.573 770.069 397.761 785.257 393.764L812.819 386.328L813.156 388.745C813.381 390.046 813.044 393.578 812.256 396.739ZM291.387 387.629C291.387 387.908 292.399 395.066 293.749 403.432C294.987 411.891 295.887 418.863 295.662 418.956C295.549 419.048 291.949 420.35 287.787 421.744C273.499 426.671 261.912 434.665 254.937 444.518C250.887 450.375 250.325 450.561 233.787 451.583C226.362 452.048 223.887 451.955 223.887 451.118C223.887 448.794 233.675 434.572 239.862 427.879C248.862 418.026 258.199 410.032 275.074 397.669C288.574 387.722 291.387 386.049 291.387 387.629ZM597.833 400.643C598.396 406.592 598.171 408.358 597.159 408.544C596.371 408.544 592.209 408.73 587.821 408.823C578.484 409.009 572.409 411.24 564.759 417.096C559.246 421.372 549.459 424.812 513.122 434.851L495.235 439.778L494.447 433.736C493.997 430.389 494.11 427.322 494.672 426.95C495.122 426.578 503.447 423.882 513.009 420.908C531.009 415.33 569.259 402.13 586.134 395.623C591.421 393.578 596.033 392.184 596.371 392.463C596.821 392.742 597.383 396.46 597.833 400.643ZM744.532 416.91L744.195 428.158L716.07 435.316C700.657 439.313 671.295 446.749 650.82 451.955C582.084 469.524 542.597 478.355 500.297 485.419C464.635 491.461 424.135 496.76 395.898 499.084L388.361 499.642L389.936 494.808C390.836 492.112 391.736 489.695 391.961 489.416C392.298 489.23 400.286 488.022 409.735 486.814C419.185 485.605 432.235 483.746 438.648 482.724C448.098 481.236 451.135 481.143 454.96 481.98C461.597 483.467 468.91 482.259 476.56 478.448C481.51 475.938 488.147 474.172 505.022 470.639C517.172 468.129 536.409 463.853 547.884 461.065C559.359 458.276 571.959 455.766 575.896 455.487C581.184 455.116 584.446 454.279 588.721 452.048C591.984 450.375 609.983 444.611 629.446 438.941C648.57 433.364 681.758 423.603 703.132 417.282C724.507 410.868 742.62 405.663 743.407 405.663C744.532 405.57 744.757 408.173 744.532 416.91ZM484.322 412.913C484.772 415.981 484.772 418.863 484.435 419.42C482.747 421.558 388.473 445.541 381.386 445.541C380.373 445.541 377.898 443.868 375.873 441.823L372.386 438.197L378.798 436.71C407.598 430.017 444.048 419.978 468.01 412.17C475.772 409.66 482.41 407.615 482.86 407.522C483.197 407.429 483.872 409.939 484.322 412.913ZM78.7638 427.693C80.9013 428.623 84.2762 431.319 86.1887 433.643C89.6762 437.826 94.4011 449.631 93.0511 450.747C92.7136 451.118 88.3262 451.025 83.2637 450.654C74.3763 450.003 74.1513 449.91 72.6888 446.935C69.2014 440.15 59.3015 437.082 51.8766 440.614C47.7141 442.659 46.7016 441.916 48.2766 437.826C51.8766 428.902 68.7514 423.324 78.7638 427.693ZM486.46 432.62C487.697 437.919 487.585 438.012 482.972 436.617C477.235 434.944 472.96 435.037 465.647 436.803C460.585 438.012 458.11 439.499 451.247 445.262C444.385 451.118 441.91 452.513 437.185 453.535C428.185 455.487 391.848 462.273 390.161 462.273C389.373 462.273 388.136 460.879 387.461 459.206C386.786 457.625 385.886 455.58 385.436 454.837C384.873 453.721 388.361 452.699 404.11 449.445C423.123 445.448 464.635 435.409 477.01 431.691C485.335 429.274 485.672 429.274 486.46 432.62ZM555.196 446.656C555.759 447.958 555.196 448.516 552.834 449.352C547.771 450.932 495.797 463.203 493.997 463.203C493.097 463.203 492.76 462.645 493.322 461.53C493.772 460.693 494.672 457.625 495.235 454.744L496.472 449.538L552.946 433.921L553.621 439.499C554.071 442.566 554.746 445.82 555.196 446.656ZM329.074 450.747C332.786 451.49 336.274 452.513 336.724 452.885C337.174 453.256 333.011 454.279 327.386 455.023C321.874 455.766 317.261 456.045 317.261 455.766C317.261 455.394 316.924 453.721 316.586 452.141C315.911 449.445 316.024 449.259 319.174 449.259C320.974 449.259 325.474 449.91 329.074 450.747ZM301.512 453.814C301.512 454.837 301.849 456.231 302.187 456.975C302.637 457.997 301.286 458.462 296.224 458.927C292.624 459.299 288.237 459.763 286.324 460.042L282.949 460.507L286.212 458.369C290.374 455.58 298.249 452.048 300.049 452.048C300.837 452.048 301.512 452.885 301.512 453.814ZM89.2262 456.324C91.7012 456.696 93.3886 457.346 93.3886 458.183C93.3886 459.763 93.0511 459.763 81.3513 458.369C74.4888 457.625 72.0139 456.975 72.0139 455.952C72.0139 454.651 75.8388 454.651 89.2262 456.324ZM247.85 459.67C247.512 461.344 247.062 462.924 246.837 463.017C246.725 463.203 240.425 463.575 233 463.853L219.5 464.411L220.4 461.715C221.187 459.02 221.3 459.02 234.125 457.997C241.212 457.439 247.287 456.882 247.737 456.789C248.187 456.789 248.3 458.09 247.85 459.67ZM160.663 460.042L182.263 460.693V465.248L167.413 464.69C130.288 463.11 113.638 461.901 113.638 460.507C113.638 458.648 116.113 458.369 127.138 458.927C133.663 459.206 148.738 459.763 160.663 460.042ZM353.261 463.203C355.286 465.341 356.748 467.107 356.523 467.293C355.736 467.851 320.524 471.755 319.961 471.383C319.736 471.104 319.399 469.338 319.174 467.293L318.949 463.76L333.011 461.715C340.774 460.6 347.636 459.67 348.424 459.577C349.099 459.577 351.349 461.158 353.261 463.203ZM81.4638 463.389C87.7637 464.039 91.5887 464.969 91.9261 465.713C92.2636 466.456 92.2636 467.2 92.0387 467.386C91.5887 467.851 77.4138 465.991 65.2639 463.946C60.314 463.11 59.5265 462.831 61.3265 462.18C62.5639 461.715 65.3764 461.622 67.5139 461.808C69.6514 462.087 75.9513 462.738 81.4638 463.389ZM441.348 467.572C441.573 470.546 441.685 473.149 441.573 473.242C441.123 473.707 400.961 479.749 396.011 480.121L392.073 480.4L391.736 475.566C391.398 471.104 391.623 470.639 393.986 470.174C395.448 469.989 405.235 468.222 415.698 466.363C426.273 464.504 435.048 462.831 435.273 462.645C435.498 462.459 436.848 462.273 438.198 462.273C440.448 462.273 440.785 462.831 441.348 467.572ZM304.099 468.966C304.436 470.639 304.324 472.312 303.874 472.684C303.311 473.149 278.224 475.287 272.712 475.287C271.362 475.287 271.474 474.636 273.274 471.662L275.524 468.036L284.862 467.107C290.037 466.642 296.337 466.177 298.812 466.084C303.312 465.991 303.536 466.177 304.099 468.966ZM131.638 468.222C141.201 468.966 156.5 469.896 165.613 470.267C182.038 470.918 182.038 470.918 182.6 473.242L183.163 475.566L168.875 474.915C155.263 474.357 112.401 470.732 111.501 470.081C110.826 469.617 112.401 466.921 113.301 466.921C113.751 466.921 122.076 467.572 131.638 468.222ZM246.387 472.963V476.217H232.325C219.725 476.217 218.262 476.031 218.262 474.543C218.262 471.29 219.95 470.732 230.637 470.36C236.487 470.267 242.45 469.989 243.912 469.896C246.05 469.71 246.387 470.174 246.387 472.963ZM363.386 479.098C364.061 481.236 364.398 483.095 364.061 483.374C363.498 483.839 346.736 485.605 330.086 486.814L322.099 487.464L321.424 483.467C321.086 481.329 320.861 479.47 320.974 479.284C321.086 479.191 329.861 478.262 340.324 477.146C350.899 476.031 359.673 474.915 359.898 474.729C360.911 473.893 362.261 475.659 363.386 479.098ZM126.576 477.146C140.526 478.633 179 481.794 183.163 481.794C183.725 481.794 184.513 482.909 184.85 484.211L185.413 486.721L176.188 486.07C159.425 484.954 113.188 479.842 108.351 478.54C107.001 478.169 107.563 475.287 109.026 475.287C109.363 475.287 117.351 476.124 126.576 477.146ZM306.461 484.676L307.136 488.022L295.212 488.58C288.574 488.952 280.249 489.23 276.537 489.23H270.012V481.794L278.787 481.701C283.512 481.608 291.274 481.329 295.887 480.957C300.499 480.678 304.661 480.586 304.999 480.864C305.449 481.143 306.011 482.816 306.461 484.676ZM249.65 485.605C250.325 487.278 250.887 488.766 250.887 488.859C250.887 489.045 244.25 489.23 236.262 489.23H221.637L220.512 486.814C219.837 485.512 219.387 484.025 219.387 483.56C219.387 483.095 225.687 482.724 233.9 482.724H248.412L249.65 485.605ZM123.201 485.977C138.501 488.022 182.488 492.949 186.088 492.949C187.438 492.949 190.7 497.504 189.8 498.154C188.45 499.27 103.401 487.65 101.601 486.07C100.589 485.233 102.501 483.653 104.526 483.653C105.539 483.653 113.976 484.676 123.201 485.977ZM364.961 495.923C364.511 498.154 363.836 500.292 363.386 500.664C362.598 501.408 339.199 502.988 328.399 503.174C324.349 503.174 324.236 503.081 323.786 499.177C323.449 497.039 323.336 495.18 323.561 494.994C323.786 494.622 354.161 492.298 360.911 492.112L365.636 492.019L364.961 495.923ZM242 495.737H255.049L258.087 499.456L261.124 503.267L250.662 502.709C228.725 501.594 226.137 501.222 225.012 499.456C222.987 496.388 223.55 494.529 226.475 495.18C227.825 495.459 234.8 495.737 242 495.737ZM308.261 496.574C308.261 497.039 308.599 498.712 308.936 500.292L309.724 503.174H277.212L275.299 499.92C274.287 498.061 273.387 496.388 273.387 496.202C273.387 495.923 281.262 495.737 290.824 495.737C300.387 495.737 308.261 496.109 308.261 496.574ZM253.137 509.216L268.324 509.867L278.674 514.05C288.912 518.326 297.912 519.813 298.924 517.489C299.149 516.931 296.449 515.258 292.849 513.771L286.324 511.075L298.024 510.796C304.436 510.703 309.836 510.703 310.061 510.889C311.074 511.633 314.224 534.779 313.549 535.43C311.636 536.917 288.237 536.824 279.462 535.244C261.462 532.083 243.462 522.788 234.125 512.005L230.3 507.543L234.125 508.101C236.262 508.379 244.812 508.937 253.137 509.216ZM358.886 510.424C358.886 511.726 352.811 518.233 348.649 521.486C344.486 524.647 332.111 531.061 330.086 531.061C329.299 531.061 328.286 527.621 327.499 522.881C325.586 510.053 325.249 510.796 332.786 510.332C346.286 509.681 358.886 509.681 358.886 510.424Z" fill="#704214" fill-opacity="0.15"/>
<path d="M112.851 418.212C110.376 420.257 110.151 421.094 110.713 424.44C111.726 429.646 115.213 432.527 120.388 432.527C127.363 432.527 132.313 426.764 129.501 421.744C128.038 419.049 121.963 415.795 118.363 415.795C116.901 415.795 114.538 416.911 112.851 418.212Z" fill="#EAE3DC"/>
</svg>
