<svg width="27" height="40" viewBox="0 0 27 40" fill="none" xmlns="http://www.w3.org/2000/svg">
<path d="M7.875 10.3906C7.875 10.0573 7.75 9.8125 7.5 9.65625C7.26042 9.48958 6.99479 9.40625 6.70312 9.40625C6.11979 9.40625 5.55208 9.49479 5 9.67188C4.44792 9.83854 3.95312 10.0729 3.51562 10.375C3.07812 10.6667 2.72396 11.0208 2.45312 11.4375C2.19271 11.8438 2.0625 12.2865 2.0625 12.7656C2.0625 13.099 2.10417 13.3646 2.1875 13.5625C2.28125 13.7604 2.38542 13.9115 2.5 14.0156C2.61458 14.1094 2.72917 14.1719 2.84375 14.2031C2.96875 14.224 3.05729 14.2344 3.10938 14.2344C3.36979 14.2344 3.58333 14.1927 3.75 14.1094C3.91667 14.0156 4.06771 13.9219 4.20312 13.8281C4.33854 13.724 4.46354 13.6302 4.57812 13.5469C4.70312 13.4531 4.84375 13.4062 5 13.4062C5.125 13.4062 5.25521 13.4375 5.39062 13.5C5.53646 13.5521 5.66667 13.6406 5.78125 13.7656C5.90625 13.8906 6.01042 14.0573 6.09375 14.2656C6.17708 14.4635 6.21875 14.7083 6.21875 15C6.21875 15.4167 6.13542 15.776 5.96875 16.0781C5.8125 16.3802 5.60417 16.6354 5.34375 16.8438C5.09375 17.0417 4.80208 17.1927 4.46875 17.2969C4.14583 17.3906 3.82292 17.4375 3.5 17.4375C3 17.4375 2.54688 17.3542 2.14062 17.1875C1.74479 17.0104 1.40625 16.7708 1.125 16.4688C0.84375 16.1667 0.630208 15.8125 0.484375 15.4062C0.338542 15 0.265625 14.5677 0.265625 14.1094C0.265625 12.8073 0.59375 11.7396 1.25 10.9062C1.90625 10.0625 2.79688 9.40104 3.92188 8.92188C5.05729 8.43229 6.375 8.09896 7.875 7.92188C9.38542 7.73438 10.9896 7.64062 12.6875 7.64062C14.625 7.64062 16.375 7.83854 17.9375 8.23438C19.5104 8.61979 20.8542 9.25 21.9688 10.125C23.0833 11 23.9427 12.1458 24.5469 13.5625C25.151 14.9688 25.4531 16.6875 25.4531 18.7188C25.4531 20.75 25.1302 22.5521 24.4844 24.125C23.849 25.6979 22.974 27.0208 21.8594 28.0938C20.7552 29.1562 19.4531 29.9688 17.9531 30.5312C16.4635 31.0833 14.8646 31.3594 13.1562 31.3594C12.0208 31.3594 11.1042 31.3021 10.4062 31.1875C9.71875 31.0833 9.1875 30.901 8.8125 30.6406C8.4375 30.3698 8.1875 30.0156 8.0625 29.5781C7.9375 29.1302 7.875 28.5677 7.875 27.8906V10.3906ZM13.0312 28.0312C13.0312 28.625 13.1615 29.0521 13.4219 29.3125C13.6927 29.5625 14.0885 29.6875 14.6094 29.6875C15.3906 29.6875 16.1094 29.5156 16.7656 29.1719C17.4323 28.8281 18.0052 28.2396 18.4844 27.4062C18.9635 26.5625 19.3385 25.4427 19.6094 24.0469C19.8802 22.651 20.0156 20.8958 20.0156 18.7812C20.0156 17.3646 19.9271 16.1406 19.75 15.1094C19.5833 14.0677 19.3594 13.1875 19.0781 12.4688C18.7969 11.7396 18.474 11.151 18.1094 10.7031C17.7552 10.2448 17.3906 9.89062 17.0156 9.64062C16.6406 9.38021 16.2708 9.20833 15.9062 9.125C15.5521 9.03125 15.2344 8.98438 14.9531 8.98438C14.276 8.98438 13.7865 9.13542 13.4844 9.4375C13.1823 9.73958 13.0312 10.2812 13.0312 11.0625V28.0312Z" fill="white"/>
<circle cx="3.5" cy="28.5" r="2.5" fill="white"/>
<circle cx="3.5" cy="21.5" r="2.5" fill="white"/>
</svg>
